<svg xmlns="http://www.w3.org/2000/svg" viewBox="0 0 1200 900" role="img" aria-labelledby="t d"><title id="t">Premio del sorteo Zenix AR</title><desc id="d">Ilustración del premio: página web profesional, adaptable, con contacto y hosting.</desc><defs><linearGradient id="bg" x1="0" y1="0" x2="1" y2="1"><stop stop-color="#090a12"/><stop offset=".55" stop-color="#171026"/><stop offset="1" stop-color="#0d0d16"/></linearGradient><linearGradient id="p" x1="0" y1="0" x2="1" y2="1"><stop stop-color="#7c4dff"/><stop offset="1" stop-color="#d24df3"/></linearGradient><filter id="g"><feGaussianBlur stdDeviation="14" result="b"/><feMerge><feMergeNode in="b"/><feMergeNode in="SourceGraphic"/></feMerge></filter></defs><rect width="1200" height="900" fill="url(#bg)"/><circle cx="980" cy="100" r="250" fill="#7b35ff" opacity=".13"/><circle cx="150" cy="760" r="220" fill="#c83cff" opacity=".08"/><g transform="translate(70 70)"><text fill="#c79eff" font-family="Arial,Helvetica,sans-serif" font-size="24" font-weight="800" letter-spacing="4">PREMIO DEL SORTEO</text><text y="78" fill="#fff" font-family="Arial,Helvetica,sans-serif" font-size="58" font-weight="900">UNA WEB PROFESIONAL</text><text y="125" fill="#aaa8b5" font-family="Arial,Helvetica,sans-serif" font-size="24">Pensada para tu negocio y lista para publicar.</text></g><g transform="translate(620 150)"><rect width="470" height="360" rx="26" fill="#0a0b12" stroke="#a66cff" stroke-width="4"/><rect x="24" y="24" width="422" height="292" rx="16" fill="#15162a"/><circle cx="50" cy="50" r="6" fill="#ff637c"/><circle cx="70" cy="50" r="6" fill="#ffcf68"/><circle cx="90" cy="50" r="6" fill="#73df91"/><rect x="52" y="90" width="128" height="18" rx="9" fill="#a760ff"/><rect x="52" y="132" width="230" height="46" rx="12" fill="#fff" opacity=".93"/><rect x="52" y="196" width="190" height="14" rx="7" fill="#fff" opacity=".3"/><rect x="52" y="224" width="150" height="14" rx="7" fill="#fff" opacity=".2"/><rect x="52" y="264" width="150" height="38" rx="12" fill="url(#p)"/><rect x="310" y="94" width="102" height="178" rx="20" fill="#111321" stroke="#7443ba"/><rect x="326" y="118" width="70" height="10" rx="5" fill="#ad68ff"/><rect x="326" y="145" width="56" height="30" rx="8" fill="#fff" opacity=".9"/><rect x="326" y="190" width="53" height="8" rx="4" fill="#fff" opacity=".28"/><rect x="326" y="214" width="48" height="8" rx="4" fill="#fff" opacity=".18"/><rect x="326" y="242" width="54" height="22" rx="7" fill="url(#p)"/><path d="M68 360h335l58 42H10z" fill="#1e1f2a"/></g><g transform="translate(80 235)"><rect width="470" height="500" rx="28" fill="#11121b" stroke="#6e3aa5" stroke-width="2"/><g font-family="Arial,Helvetica,sans-serif"><g transform="translate(42 44)"><circle cx="24" cy="24" r="24" fill="url(#p)"/><path d="M13 24l8 8 15-18" fill="none" stroke="#fff" stroke-width="6" stroke-linecap="round" stroke-linejoin="round"/><text x="72" y="18" fill="#fff" font-size="26" font-weight="800">Diseño moderno</text><text x="72" y="46" fill="#a8a6b2" font-size="20">Con identidad para tu proyecto</text></g><g transform="translate(42 142)"><circle cx="24" cy="24" r="24" fill="url(#p)"/><path d="M13 24l8 8 15-18" fill="none" stroke="#fff" stroke-width="6" stroke-linecap="round" stroke-linejoin="round"/><text x="72" y="18" fill="#fff" font-size="26" font-weight="800">100% adaptable</text><text x="72" y="46" fill="#a8a6b2" font-size="20">Celular, tablet y computadora</text></g><g transform="translate(42 240)"><circle cx="24" cy="24" r="24" fill="url(#p)"/><path d="M13 24l8 8 15-18" fill="none" stroke="#fff" stroke-width="6" stroke-linecap="round" stroke-linejoin="round"/><text x="72" y="18" fill="#fff" font-size="26" font-weight="800">Contacto / WhatsApp</text><text x="72" y="46" fill="#a8a6b2" font-size="20">Para que tus clientes te escriban</text></g><g transform="translate(42 338)"><circle cx="24" cy="24" r="24" fill="url(#p)"/><path d="M13 24l8 8 15-18" fill="none" stroke="#fff" stroke-width="6" stroke-linecap="round" stroke-linejoin="round"/><text x="72" y="18" fill="#fff" font-size="26" font-weight="800">Hosting incluido</text><text x="72" y="46" fill="#a8a6b2" font-size="20">Publicación online incluida</text></g></g></g><g transform="translate(785 575)" filter="url(#g)"><path d="M40 80h220v170H40z" fill="#4f2182" stroke="#bc7cff" stroke-width="5"/><path d="M20 50h260v62H20z" fill="#6829aa" stroke="#dda5ff" stroke-width="5"/><path d="M150 52v198M60 48c-42-54 25-86 90-8 4-75 91-77 83-13-6 48-79 54-83 13-35 3-78-4-90-16z" fill="none" stroke="#f1dfff" stroke-width="12" stroke-linecap="round"/></g></svg>