<svg xmlns="http://www.w3.org/2000/svg" viewBox="0 0 1200 900" fill="none"><defs><linearGradient id="bg" x1="90" y1="70" x2="1110" y2="830"><stop stop-color="#fff"/><stop offset=".58" stop-color="#F5F8FF"/><stop offset="1" stop-color="#E8F2FF"/></linearGradient><linearGradient id="b" x1="0" y1="0" x2="1" y2="1"><stop stop-color="#1841FF"/><stop offset="1" stop-color="#55D6FF"/></linearGradient><filter id="s" x="-30%" y="-30%" width="160%" height="180%"><feDropShadow dy="24" stdDeviation="28" flood-color="#173B78" flood-opacity=".18"/></filter></defs><rect width="1200" height="900" rx="72" fill="url(#bg)"/><path d="M-30 670C190 520 355 480 530 560C750 662 930 602 1240 385" stroke="#fff" stroke-width="36" stroke-linecap="round" opacity=".75"/><g filter="url(#s)"><rect x="140" y="135" width="920" height="620" rx="48" fill="#fff" stroke="#DCE8F8" stroke-width="3"/><rect x="185" y="190" width="380" height="500" rx="32" fill="#FAFCFF" stroke="#E2EAF6"/><rect x="225" y="235" width="155" height="18" rx="9" fill="#1948FF"/><g><rect x="225" y="294" width="300" height="64" rx="20" fill="#fff" stroke="#E1E9F5"/><rect x="225" y="381" width="300" height="64" rx="20" fill="#fff" stroke="#E1E9F5"/><rect x="225" y="468" width="300" height="112" rx="22" fill="#fff" stroke="#E1E9F5"/></g><g fill="#CCD8E8"><rect x="252" y="319" width="120" height="10" rx="5"/><rect x="252" y="406" width="148" height="10" rx="5"/><rect x="252" y="497" width="210" height="10" rx="5"/><rect x="252" y="525" width="175" height="10" rx="5"/></g><rect x="225" y="615" width="145" height="42" rx="21" fill="url(#b)"/><rect x="610" y="190" width="405" height="226" rx="32" fill="#F7FAFF" stroke="#E2EAF6"/><circle cx="680" cy="262" r="34" fill="url(#b)"/><path d="M666 263l11 11 20-25" stroke="#fff" stroke-width="7" stroke-linecap="round" stroke-linejoin="round"/><rect x="735" y="238" width="218" height="12" rx="6" fill="#C8D5E7"/><rect x="735" y="266" width="156" height="10" rx="5" fill="#E0E7F1"/><rect x="650" y="326" width="325" height="44" rx="16" fill="#EEF4FF"/><rect x="610" y="452" width="405" height="238" rx="32" fill="#F7FAFF" stroke="#E2EAF6"/><g fill="url(#b)"><circle cx="684" cy="525" r="26"/><circle cx="805" cy="525" r="26"/><circle cx="926" cy="525" r="26"/></g><g stroke="#9FC3FF" stroke-width="5" stroke-linecap="round"><path d="M710 525h69"/><path d="M831 525h69"/></g><g fill="#C8D5E7"><rect x="652" y="580" width="65" height="10" rx="5"/><rect x="773" y="580" width="65" height="10" rx="5"/><rect x="894" y="580" width="65" height="10" rx="5"/></g><rect x="652" y="620" width="307" height="28" rx="14" fill="#EAF1FF"/></g><g filter="url(#s)"><rect x="88" y="340" width="180" height="135" rx="28" fill="#fff" stroke="#DCE8F8" stroke-width="3"/><path d="M124 385h108v58H124z" fill="#EAF1FF"/><path d="M126 387l52 37 52-37" stroke="#2E68FF" stroke-width="6" stroke-linecap="round" stroke-linejoin="round"/></g></svg>