<svg xmlns="http://www.w3.org/2000/svg" viewBox="0 0 1200 900" fill="none"><defs><linearGradient id="bg" x1="80" y1="60" x2="1120" y2="840"><stop stop-color="#fff"/><stop offset=".6" stop-color="#F4F8FF"/><stop offset="1" stop-color="#E7F1FF"/></linearGradient><linearGradient id="b" x1="0" y1="0" x2="1" y2="1"><stop stop-color="#173FFF"/><stop offset="1" stop-color="#55D7FF"/></linearGradient><filter id="s" x="-30%" y="-30%" width="160%" height="180%"><feDropShadow dy="24" stdDeviation="28" flood-color="#173B78" flood-opacity=".18"/></filter></defs><rect width="1200" height="900" rx="72" fill="url(#bg)"/><path d="M-40 674C194 504 360 482 526 560C752 666 911 605 1250 350" stroke="#fff" stroke-width="36" stroke-linecap="round" opacity=".75"/><g filter="url(#s)"><rect x="125" y="130" width="950" height="630" rx="48" fill="#fff" fill-opacity=".88" stroke="#DCE8F8" stroke-width="3"/><rect x="125" y="130" width="950" height="74" rx="48" fill="#FBFDFF"/><circle cx="172" cy="167" r="9" fill="#FF5D6A"/><circle cx="201" cy="167" r="9" fill="#FFCF47"/><circle cx="230" cy="167" r="9" fill="#3DD9A2"/><rect x="287" y="156" width="220" height="20" rx="10" fill="#E8EEF7"/><g><rect x="175" y="248" width="255" height="205" rx="30" fill="#F7FAFF" stroke="#E1EAF6"/><rect x="472" y="248" width="255" height="205" rx="30" fill="#F7FAFF" stroke="#E1EAF6"/><rect x="769" y="248" width="255" height="205" rx="30" fill="#F7FAFF" stroke="#E1EAF6"/></g><g fill="url(#b)"><rect x="216" y="295" width="80" height="80" rx="24"/><rect x="513" y="295" width="80" height="80" rx="24"/><rect x="810" y="295" width="80" height="80" rx="24"/></g><path d="M240 336h32M256 320v32" stroke="#fff" stroke-width="7" stroke-linecap="round"/><path d="M538 335c12-18 28-18 40 0" stroke="#fff" stroke-width="7" stroke-linecap="round"/><path d="M834 344l14-18 14 12 14-21" stroke="#fff" stroke-width="7" stroke-linecap="round" stroke-linejoin="round"/><g fill="#C8D5E7"><rect x="216" y="396" width="154" height="12" rx="6"/><rect x="216" y="422" width="108" height="10" rx="5"/><rect x="513" y="396" width="154" height="12" rx="6"/><rect x="513" y="422" width="118" height="10" rx="5"/><rect x="810" y="396" width="154" height="12" rx="6"/><rect x="810" y="422" width="98" height="10" rx="5"/></g><rect x="175" y="495" width="849" height="208" rx="32" fill="#FAFCFF" stroke="#E1EAF6"/><g><rect x="214" y="535" width="178" height="128" rx="25" fill="#EAF1FF"/><rect x="414" y="535" width="178" height="128" rx="25" fill="#ECFAFF"/><rect x="614" y="535" width="178" height="128" rx="25" fill="#EEF2FF"/><rect x="814" y="535" width="170" height="128" rx="25" fill="#EAF1FF"/></g><g fill="url(#b)"><rect x="244" y="609" width="24" height="26" rx="7"/><rect x="282" y="585" width="24" height="50" rx="7"/><rect x="320" y="556" width="24" height="79" rx="7"/></g><path d="M454 621c34-8 39-33 71-21 31 12 35-22 58-23" stroke="#2E67FF" stroke-width="7" stroke-linecap="round"/><circle cx="700" cy="598" r="37" stroke="#CAD8EA" stroke-width="16"/><path d="M700 561a37 37 0 0129 13" stroke="#2A62FF" stroke-width="16" stroke-linecap="round"/><rect x="842" y="567" width="106" height="12" rx="6" fill="#C8D5E7"/><rect x="842" y="595" width="80" height="10" rx="5" fill="#DDE5EF"/><rect x="842" y="625" width="118" height="10" rx="5" fill="#E5EBF3"/></g></svg>