<svg xmlns="http://www.w3.org/2000/svg" viewBox="0 0 1200 900" fill="none"><defs><linearGradient id="bg" x1="160" y1="80" x2="1030" y2="820" gradientUnits="userSpaceOnUse"><stop stop-color="#FDFEFF"/><stop offset=".55" stop-color="#F4F8FF"/><stop offset="1" stop-color="#E9F1FF"/></linearGradient><linearGradient id="blue" x1="0" y1="0" x2="1" y2="1"><stop stop-color="#1A45FF"/><stop offset="1" stop-color="#4BCBFF"/></linearGradient><linearGradient id="glass" x1="0" y1="0" x2="1" y2="1"><stop stop-color="#FFFFFF" stop-opacity=".96"/><stop offset="1" stop-color="#EDF4FF" stop-opacity=".78"/></linearGradient><filter id="shadow" x="-30%" y="-30%" width="160%" height="180%"><feDropShadow dx="0" dy="24" stdDeviation="30" flood-color="#173B78" flood-opacity=".18"/></filter><filter id="soft"><feGaussianBlur stdDeviation="28"/></filter></defs><rect width="1200" height="900" rx="72" fill="url(#bg)"/><ellipse cx="1018" cy="126" rx="246" ry="114" fill="#4AA8FF" opacity=".15" filter="url(#soft)"/><ellipse cx="196" cy="738" rx="210" ry="140" fill="#2A56FF" opacity=".09" filter="url(#soft)"/><path d="M-40 555C155 425 318 420 484 512C658 608 842 607 1245 345" stroke="#FFFFFF" stroke-width="34" stroke-linecap="round" opacity=".7"/><path d="M-35 603C197 454 362 475 520 560C731 672 943 587 1235 422" stroke="#61CFFF" stroke-opacity=".22" stroke-width="10" stroke-linecap="round"/><circle cx="118" cy="205" r="46" fill="url(#blue)" opacity=".9"/><circle cx="1050" cy="662" r="28" fill="#1D53FF" opacity=".76"/><circle cx="166" cy="708" r="64" fill="#FFF" stroke="#DDE9FF" stroke-width="4" filter="url(#shadow)"/><g filter="url(#shadow)"><rect x="164" y="114" width="824" height="612" rx="46" fill="url(#glass)" stroke="#D9E6FB" stroke-width="3"/><rect x="164" y="114" width="824" height="74" rx="46" fill="#FBFDFF"/><circle cx="211" cy="151" r="9" fill="#FF5C69"/><circle cx="239" cy="151" r="9" fill="#FFCE45"/><circle cx="267" cy="151" r="9" fill="#37D8A1"/><rect x="322" y="140" width="208" height="21" rx="11" fill="#E7EDF7"/><rect x="184" y="208" width="114" height="488" rx="28" fill="#F5F8FD"/><rect x="203" y="237" width="76" height="64" rx="19" fill="#E3ECFF"/><rect x="211" y="249" width="40" height="12" rx="6" fill="#255BFF"/><rect x="211" y="267" width="56" height="8" rx="4" fill="#9DB4E9"/><g fill="#E6EDF7"><rect x="205" y="328" width="72" height="54" rx="16"/><rect x="205" y="400" width="72" height="54" rx="16"/><rect x="205" y="472" width="72" height="54" rx="16"/><rect x="205" y="544" width="72" height="54" rx="16"/></g><g><rect x="332" y="224" width="184" height="104" rx="25" fill="#F7FAFF" stroke="#E1EAF7"/><rect x="532" y="224" width="184" height="104" rx="25" fill="#F7FAFF" stroke="#E1EAF7"/><rect x="732" y="224" width="218" height="104" rx="25" fill="#F7FAFF" stroke="#E1EAF7"/><rect x="355" y="246" width="43" height="43" rx="14" fill="#DFF5FF"/><path d="M366 275l8-11 8 7 8-14" stroke="#22B8F0" stroke-width="6" stroke-linecap="round" stroke-linejoin="round"/><rect x="414" y="250" width="72" height="12" rx="6" fill="#C9D5E8"/><rect x="414" y="273" width="94" height="12" rx="6" fill="#2B62FF"/><rect x="555" y="246" width="43" height="43" rx="14" fill="#E9EEFF"/><rect x="611" y="250" width="68" height="12" rx="6" fill="#C9D5E8"/><rect x="611" y="273" width="82" height="12" rx="6" fill="#5B80FF"/><circle cx="762" cy="268" r="24" stroke="#DDE7F5" stroke-width="12"/><path d="M762 244a24 24 0 0118 8" stroke="#2459FF" stroke-width="12" stroke-linecap="round"/><rect x="806" y="250" width="91" height="12" rx="6" fill="#C9D5E8"/><rect x="806" y="273" width="112" height="12" rx="6" fill="#2B62FF"/></g><rect x="332" y="349" width="408" height="245" rx="29" fill="#FBFDFF" stroke="#E1EAF7"/><rect x="360" y="377" width="128" height="13" rx="6.5" fill="#B8C7DD"/><path d="M369 540C424 525 425 490 474 501C528 513 540 457 588 469C635 482 652 421 706 405" stroke="url(#blue)" stroke-width="8" stroke-linecap="round"/><path d="M369 540C424 525 425 490 474 501C528 513 540 457 588 469C635 482 652 421 706 405V566H369Z" fill="#3270FF" opacity=".08"/><g fill="#2B62FF"><circle cx="474" cy="501" r="7"/><circle cx="588" cy="469" r="7"/><circle cx="706" cy="405" r="7"/></g><rect x="756" y="349" width="194" height="245" rx="29" fill="#FBFDFF" stroke="#E1EAF7"/><circle cx="821" cy="430" r="44" stroke="#DDE7F5" stroke-width="20"/><path d="M821 386a44 44 0 0134 16" stroke="#2459FF" stroke-width="20" stroke-linecap="round"/><path d="M857 449a44 44 0 01-36 25" stroke="#45C7FF" stroke-width="20" stroke-linecap="round"/><g fill="#C9D5E8"><rect x="784" y="511" width="118" height="10" rx="5"/><rect x="784" y="534" width="88" height="10" rx="5"/></g><rect x="332" y="614" width="618" height="82" rx="25" fill="#F7FAFF" stroke="#E1EAF7"/><g fill="url(#blue)"><rect x="364" y="651" width="28" height="24" rx="8"/><rect x="408" y="636" width="28" height="39" rx="8"/><rect x="452" y="623" width="28" height="52" rx="8"/><rect x="496" y="642" width="28" height="33" rx="8"/><rect x="540" y="615" width="28" height="60" rx="8"/></g></g><g filter="url(#shadow)" transform="rotate(4 925 575)"><rect x="846" y="392" width="238" height="392" rx="49" fill="#0B1C3C"/><rect x="861" y="410" width="208" height="356" rx="36" fill="#F7FAFF"/><rect x="884" y="452" width="164" height="92" rx="27" fill="url(#blue)"/><rect x="895" y="472" width="70" height="12" rx="6" fill="#DDEAFF"/><rect x="885" y="573" width="44" height="44" rx="15" fill="#EAF1FF"/><rect x="942" y="573" width="44" height="44" rx="15" fill="#EAF1FF"/><rect x="999" y="573" width="44" height="44" rx="15" fill="#DFF7FF"/><g fill="#DCE5F2"><rect x="884" y="643" width="151" height="12" rx="6"/><rect x="884" y="669" width="129" height="12" rx="6"/><rect x="884" y="695" width="92" height="12" rx="6"/></g><rect x="884" y="724" width="158" height="18" rx="9" fill="#2A61FF"/></g></svg>