<svg xmlns="http://www.w3.org/2000/svg" viewBox="0 0 1200 900" fill="none"><defs><linearGradient id="bg" x1="80" y1="60" x2="1120" y2="840"><stop stop-color="#FFFFFF"/><stop offset=".58" stop-color="#F5F8FF"/><stop offset="1" stop-color="#E9F2FF"/></linearGradient><linearGradient id="blue" x1="0" y1="0" x2="1" y2="1"><stop stop-color="#183FFF"/><stop offset="1" stop-color="#4BD2FF"/></linearGradient><linearGradient id="hero" x1="0" y1="0" x2="1" y2="1"><stop stop-color="#153DFF"/><stop offset=".58" stop-color="#6EBEFF"/><stop offset="1" stop-color="#DDEEFF"/></linearGradient><filter id="shadow" x="-30%" y="-30%" width="160%" height="180%"><feDropShadow dx="0" dy="24" stdDeviation="30" flood-color="#173B78" flood-opacity=".18"/></filter><filter id="blur"><feGaussianBlur stdDeviation="28"/></filter></defs><rect width="1200" height="900" rx="72" fill="url(#bg)"/><ellipse cx="1020" cy="138" rx="238" ry="118" fill="#48CBFF" opacity=".17" filter="url(#blur)"/><ellipse cx="160" cy="730" rx="230" ry="125" fill="#244BFF" opacity=".09" filter="url(#blur)"/><path d="M-20 648C162 525 337 465 490 545C711 661 899 616 1242 376" stroke="#fff" stroke-width="36" stroke-linecap="round" opacity=".72"/><circle cx="116" cy="198" r="45" fill="url(#blue)"/><circle cx="1074" cy="678" r="28" fill="#1F57FF" opacity=".82"/><g filter="url(#shadow)"><rect x="132" y="108" width="800" height="602" rx="44" fill="#fff" fill-opacity=".9" stroke="#DCE8F8" stroke-width="3"/><rect x="132" y="108" width="800" height="76" rx="44" fill="#FBFDFF"/><circle cx="180" cy="146" r="9" fill="#2A62FF"/><rect x="214" y="137" width="117" height="18" rx="9" fill="#DDE5F1"/><g fill="#E9EEF6"><rect x="512" y="139" width="52" height="13" rx="6.5"/><rect x="580" y="139" width="52" height="13" rx="6.5"/><rect x="648" y="139" width="52" height="13" rx="6.5"/></g><rect x="761" y="132" width="128" height="27" rx="13.5" fill="#2A62FF"/><g><rect x="174" y="218" width="264" height="231" rx="31" fill="#F8FAFE"/><rect x="203" y="251" width="155" height="18" rx="9" fill="#1647FF"/><rect x="203" y="285" width="195" height="12" rx="6" fill="#C7D4E8"/><rect x="203" y="310" width="168" height="12" rx="6" fill="#E0E7F1"/><rect x="203" y="354" width="123" height="44" rx="22" fill="url(#blue)"/><rect x="469" y="218" width="421" height="231" rx="31" fill="url(#hero)"/><path d="M468 383c68-58 110-73 168-31 55 40 104 29 156-20 39-37 72-40 98-33v150H469Z" fill="#FFF" opacity=".3"/><circle cx="765" cy="281" r="45" fill="#FFF" opacity=".38"/></g><g><rect x="174" y="486" width="166" height="163" rx="27" fill="#FBFDFF" stroke="#E4EBF5"/><rect x="366" y="486" width="166" height="163" rx="27" fill="#FBFDFF" stroke="#E4EBF5"/><rect x="558" y="486" width="166" height="163" rx="27" fill="#FBFDFF" stroke="#E4EBF5"/><rect x="750" y="486" width="140" height="163" rx="27" fill="#FBFDFF" stroke="#E4EBF5"/><rect x="202" y="515" width="55" height="55" rx="17" fill="#E9F2FF"/><rect x="202" y="590" width="107" height="11" rx="5.5" fill="#C7D4E8"/><rect x="202" y="615" width="78" height="9" rx="4.5" fill="#E1E7F1"/><g fill="url(#blue)"><rect x="397" y="574" width="21" height="43" rx="6"/><rect x="430" y="554" width="21" height="63" rx="6"/><rect x="463" y="526" width="21" height="91" rx="6"/></g><rect x="589" y="515" width="104" height="62" rx="18" fill="url(#blue)" opacity=".9"/><circle cx="819" cy="548" r="35" stroke="#DDE6F3" stroke-width="16"/><path d="M819 513a35 35 0 0127 13" stroke="#285FFF" stroke-width="16" stroke-linecap="round"/><path d="M846 571a35 35 0 01-27 12" stroke="#48CBFF" stroke-width="16" stroke-linecap="round"/></g></g><g filter="url(#shadow)"><rect x="758" y="492" width="358" height="249" rx="35" fill="#0B1D3D"/><rect x="774" y="508" width="326" height="217" rx="23" fill="#F9FBFF"/><rect x="794" y="531" width="94" height="12" rx="6" fill="#1548FF"/><rect x="794" y="557" width="124" height="9" rx="4.5" fill="#C7D4E7"/><rect x="794" y="594" width="94" height="34" rx="17" fill="url(#blue)"/><rect x="931" y="531" width="144" height="82" rx="22" fill="url(#hero)"/><g><rect x="795" y="654" width="80" height="51" rx="16" fill="#EDF4FF"/><rect x="889" y="654" width="80" height="51" rx="16" fill="#EDF4FF"/><rect x="983" y="654" width="80" height="51" rx="16" fill="#EDF4FF"/></g></g><g filter="url(#shadow)"><rect x="94" y="548" width="226" height="222" rx="34" fill="#fff" fill-opacity=".82" stroke="#DCE7F8" stroke-width="3"/><rect x="122" y="579" width="170" height="101" rx="24" fill="url(#hero)"/><circle cx="220" cy="622" r="21" fill="#fff" opacity=".45"/><rect x="124" y="708" width="102" height="10" rx="5" fill="#C8D5E7"/><rect x="124" y="731" width="72" height="9" rx="4.5" fill="#E2E8F1"/></g><g filter="url(#shadow)"><rect x="945" y="246" width="186" height="164" rx="29" fill="#fff" fill-opacity=".84" stroke="#DCE7F8" stroke-width="3"/><g fill="url(#blue)"><rect x="978" y="338" width="20" height="40" rx="6"/><rect x="1012" y="319" width="20" height="59" rx="6"/><rect x="1046" y="295" width="20" height="83" rx="6"/><rect x="1080" y="271" width="20" height="107" rx="6"/></g></g></svg>